<svg viewBox="0 0 20 20" xmlns="http://www.w3.org/2000/svg" xmlns:xlink="http://www.w3.org/1999/xlink" width="20.000000" height="20.000000" fill="none">
	<rect id="icon / outlined / directions / chevron / down" width="20.000000" height="20.000000" x="0.000000" y="0.000000" fill="rgb(255,255,255)" fill-opacity="0" />
	<path id="Vector" d="M5.53033 6.96967C5.23744 6.67678 4.76256 6.67678 4.46967 6.96967C4.17678 7.26256 4.17678 7.73744 4.46967 8.03033L5 7.5L5.53033 6.96967ZM10 12.5L9.46967 13.0303C9.76256 13.3232 10.2374 13.3232 10.5303 13.0303L10 12.5ZM15.5303 8.03033C15.8232 7.73744 15.8232 7.26256 15.5303 6.96967C15.2374 6.67678 14.7626 6.67678 14.4697 6.96967L15 7.5L15.5303 8.03033ZM5 7.5L4.46967 8.03033L9.46967 13.0303L10 12.5L10.5303 11.9697L5.53033 6.96967L5 7.5ZM10 12.5L10.5303 13.0303L15.5303 8.03033L15 7.5L14.4697 6.96967L9.46967 11.9697L10 12.5Z" fill-rule="nonzero" stroke="rgb(8.13079,107.971,248.994)" stroke-linecap="round" stroke-linejoin="round" stroke-width="1.5" />
</svg>
