<svg viewBox="0 0 16 16" xmlns="http://www.w3.org/2000/svg" xmlns:xlink="http://www.w3.org/1999/xlink" width="16.000000" height="16.000000" fill="none">
	<rect id="clock (1) 1" width="16.000000" height="16.000000" x="0.000000" y="0.000000" fill="rgb(255,255,255)" fill-opacity="0" />
	<path id="Vector" d="M8 0C3.58888 0 0 3.58888 0 8C0 12.4111 3.58888 16 8 16C12.4111 16 16 12.4111 16 8C16 3.58888 12.4111 0 8 0ZM8 15C4.14013 15 1 11.8599 1 8C1 4.14013 4.14013 1 8 1C11.8599 1 15 4.14013 15 8C15 11.8599 11.8599 15 8 15Z" fill="rgb(0,0,0)" fill-rule="nonzero" />
	<path id="Vector" d="M8.5 3.00049L7.5 3.00049L7.5 8.20751L10.6465 11.354L11.3535 10.647L8.5 7.79344L8.5 3.00049Z" fill="rgb(0,0,0)" fill-rule="nonzero" />
</svg>
