<svg viewBox="0 0 72 62.7188" xmlns="http://www.w3.org/2000/svg" xmlns:xlink="http://www.w3.org/1999/xlink" width="72.000000" height="62.718750" fill="none" customFrame="#000000">
	<g id="Group">
		<path id="Vector" d="M66.2344 32.3175C69.461 32.0317 72 29.3154 72 26.0156L72 6.32812C72 2.8388 69.1612 0 65.6719 0L44.7188 0C41.2294 0 38.3906 2.8388 38.3906 6.32812L38.3906 14.625L12.0938 14.625C8.60442 14.625 5.76562 17.4638 5.76562 20.9531L5.76562 46.2656C5.76562 47.005 5.8943 47.7148 6.12844 48.375L3.79688 48.375C1.70325 48.375 0 50.0783 0 52.1719C0 57.9874 4.73133 62.7188 10.5469 62.7188L61.4531 62.7188C67.2687 62.7188 72 57.9874 72 52.1719C72 50.0783 70.2968 48.375 68.2031 48.375L65.8716 48.375C66.1057 47.7148 66.2344 47.005 66.2344 46.2656L66.2344 32.3175ZM42.6094 6.32812C42.6094 5.16502 43.5556 4.21875 44.7188 4.21875L65.6719 4.21875C66.835 4.21875 67.7812 5.16502 67.7812 6.32812L67.7812 26.0156C67.7812 27.1787 66.835 28.125 65.6719 28.125L46.125 28.125C45.7296 28.125 45.3423 28.2361 45.007 28.4456L40.754 31.1039L42.5205 25.2155C42.5794 25.0189 42.6094 24.8147 42.6094 24.6094L42.6094 6.32812ZM61.4531 58.5L10.5469 58.5C7.1993 58.5 4.45064 55.887 4.23267 52.5938L67.7673 52.5938C67.5494 55.887 64.8007 58.5 61.4531 58.5ZM20.1094 32.4844C20.1094 31.1662 21.1818 30.0938 22.5 30.0938C23.8182 30.0938 24.8906 31.1662 24.8906 32.4844C24.8906 33.8026 23.8182 34.875 22.5 34.875C21.1818 34.875 20.1094 33.8026 20.1094 32.4844ZM18.9844 41.4844C18.9844 40.2109 20.6272 39.0938 22.5 39.0938C23.5043 39.0938 24.472 39.4071 25.1549 39.9534C25.4765 40.2106 26.0156 40.7514 26.0156 41.4844L26.0156 48.375L18.9844 48.375L18.9844 41.4844ZM30.2344 48.375L30.2344 41.4844C30.2344 39.6605 29.3437 37.9017 27.7903 36.6591C27.7554 36.6311 27.719 36.605 27.6836 36.5777C28.5751 35.451 29.1094 34.0293 29.1094 32.4844C29.1094 28.8399 26.1444 25.875 22.5 25.875C18.8556 25.875 15.8906 28.8399 15.8906 32.4844C15.8906 34.0311 16.4261 35.4541 17.3194 36.5813C15.7523 37.7917 14.7656 39.5414 14.7656 41.4844L14.7656 48.375L12.0938 48.375C10.9306 48.375 9.98438 47.4287 9.98438 46.2656L9.98438 20.9531C9.98438 19.79 10.9306 18.8438 12.0938 18.8438L38.3906 18.8438L38.3906 24.2999L36.7131 29.8915C36.2036 31.5897 36.7851 33.3821 38.1946 34.4576C38.9538 35.037 39.85 35.3298 40.7505 35.3298C41.5216 35.3298 42.2961 35.1149 42.9896 34.6814L46.73 32.3438L62.0156 32.3438L62.0156 46.2656C62.0156 47.4287 61.0694 48.375 59.9062 48.375L30.2344 48.375Z" fill="rgb(8.13079,107.971,248.994)" fill-rule="nonzero" />
		<path id="Vector" d="M57.375 19.125L52.875 19.125C51.7101 19.125 50.7656 20.0694 50.7656 21.2344C50.7656 22.3993 51.7101 23.3438 52.875 23.3438L57.375 23.3438C58.5399 23.3438 59.4844 22.3993 59.4844 21.2344C59.4844 20.0694 58.5399 19.125 57.375 19.125Z" fill="rgb(8.13079,107.971,248.994)" fill-rule="nonzero" />
		<path id="Vector" d="M49.5 13.2188L60.75 13.2188C61.9149 13.2188 62.8594 12.2743 62.8594 11.1094C62.8594 9.94444 61.9149 9 60.75 9L49.5 9C48.3351 9 47.3906 9.94444 47.3906 11.1094C47.3906 12.2743 48.3351 13.2188 49.5 13.2188Z" fill="rgb(8.13079,107.971,248.994)" fill-rule="nonzero" />
	</g>
</svg>
