<svg viewBox="0 0 20 20" xmlns="http://www.w3.org/2000/svg" xmlns:xlink="http://www.w3.org/1999/xlink" width="20.000000" height="20.000000" fill="none">
	<rect id="gmail 1" width="20.000000" height="20.000000" x="0.000000" y="0.000000" fill="rgb(255,255,255)" fill-opacity="0" />
	<g id="Group">
		<g id="Group">
			<path id="Vector" d="M18.125 2.5L17.5 2.5L2.5 2.5L1.875 2.5C0.84 2.5 0 3.34 0 4.375L0 5L0 15L0 15.625C0 16.66 0.84 17.5 1.875 17.5L2.5 17.5L17.5 17.5L18.125 17.5C19.16 17.5 20 16.66 20 15.625L20 15L20 5L20 4.375C20 3.34 19.16 2.5 18.125 2.5ZM15.9175 3.75L10 8.4225L4.0825 3.75L15.9175 3.75ZM17.5 16.25L2.5 16.25L2.5 5.8075L10 11.5763L17.5 5.80625L17.5 16.25Z" fill="rgb(34,34,34)" fill-rule="nonzero" />
		</g>
	</g>
</svg>
