<svg viewBox="0 0 20 20" xmlns="http://www.w3.org/2000/svg" xmlns:xlink="http://www.w3.org/1999/xlink" width="20.000000" height="20.000000" fill="none">
	<rect id="Linked In" width="20.000000" height="20.000000" x="0.000000" y="0.000000" fill="rgb(255,255,255)" fill-opacity="0" />
	<path id="Vector" d="M18.3291 18.3332L18.3291 18.3325L18.3333 18.3325L18.3333 12.22C18.3333 9.22974 17.6896 6.92627 14.1937 6.92627C12.5132 6.92627 11.3854 7.84849 10.925 8.7228L10.8764 8.7228L10.8764 7.20544L7.56177 7.20544L7.56177 18.3325L11.0132 18.3325L11.0132 12.8228C11.0132 11.3721 11.2882 9.96933 13.0847 9.96933C14.8548 9.96933 14.8812 11.6249 14.8812 12.9159L14.8812 18.3332L18.3291 18.3332Z" fill="rgb(8.13079,107.971,248.994)" fill-rule="nonzero" />
	<path id="Vector" d="M1.94165 7.20605L5.39721 7.20605L5.39721 18.3331L1.94165 18.3331L1.94165 7.20605Z" fill="rgb(8.13079,107.971,248.994)" fill-rule="nonzero" />
	<path id="Vector" d="M3.66814 1.6665C2.56328 1.6665 1.66675 2.56303 1.66675 3.66789C1.66675 4.77275 2.56328 5.68803 3.66814 5.68803C4.773 5.68803 5.66953 4.77275 5.66953 3.66789C5.66883 2.56303 4.7723 1.6665 3.66814 1.6665L3.66814 1.6665Z" fill="rgb(8.13079,107.971,248.994)" fill-rule="nonzero" />
</svg>
