<svg viewBox="0 0 20 20" xmlns="http://www.w3.org/2000/svg" xmlns:xlink="http://www.w3.org/1999/xlink" width="20.000000" height="20.000000" fill="none">
	<rect id="Instagram (filled)" width="20.000000" height="20.000000" x="0.000000" y="0.000000" fill="rgb(255,255,255)" fill-opacity="0" />
	<path id="Subtract" d="M2.11082 14.9983C2.66719 16.2975 3.7024 17.3327 5.00167 17.8891C6.03867 18.3332 7.35914 18.3332 10.0001 18.3332C12.641 18.3332 13.9615 18.3332 14.9985 17.8891C16.2978 17.3327 17.333 16.2975 17.8893 14.9983C18.3334 13.9613 18.3334 12.6408 18.3334 9.99984C18.3334 7.3589 18.3334 6.03843 17.8893 5.00143C17.333 3.70216 16.2978 2.66695 14.9985 2.11057C13.9615 1.6665 12.641 1.6665 10.0001 1.6665C7.35914 1.6665 6.03867 1.6665 5.00167 2.11057C3.7024 2.66695 2.6672 3.70216 2.11082 5.00143C1.66675 6.03842 1.66675 7.3589 1.66675 9.99984C1.66675 12.6408 1.66675 13.9613 2.11082 14.9983ZM15.3306 5.257C15.3306 5.58167 15.0674 5.84487 14.7427 5.84487C14.418 5.84487 14.1548 5.58167 14.1548 5.257C14.1548 4.93233 14.418 4.66913 14.7427 4.66913C15.0674 4.66913 15.3306 4.93233 15.3306 5.257ZM10.0001 5.58827C7.56371 5.58827 5.58834 7.56364 5.58834 10C5.58834 12.4364 7.56371 14.4118 10.0001 14.4118C12.4365 14.4118 14.4119 12.4364 14.4119 10C14.4119 7.56364 12.4365 5.58827 10.0001 5.58827ZM10.0001 12.7574C8.48025 12.7574 7.24275 11.5199 7.24275 10C7.24275 8.47908 8.48025 7.24268 10.0001 7.24268C11.52 7.24268 12.7575 8.47908 12.7575 10C12.7575 11.5199 11.52 12.7574 10.0001 12.7574Z" fill="rgb(8.13079,107.971,248.994)" fill-rule="evenodd" />
</svg>
