<svg viewBox="0 0 80 80" xmlns="http://www.w3.org/2000/svg" xmlns:xlink="http://www.w3.org/1999/xlink" width="80.000000" height="80.000000" fill="none">
	<rect id="online-learning 1" width="80.000000" height="80.000000" x="0.000000" y="0.000000" fill="rgb(255,255,255)" fill-opacity="0" />
	<g id="Group">
		<path id="Vector" d="M76.7723 7.89062L56.6789 7.89062C56.1345 5.21937 53.7672 3.20312 50.9375 3.20312L29.0625 3.20312C26.2328 3.20312 23.8655 5.21937 23.3211 7.89062L3.22766 7.89062C1.44797 7.89062 0 9.33844 0 11.1178L0 61.6842C0 63.4637 1.44797 64.9114 3.22766 64.9114L31.3548 64.9114L29.7739 69.7686L26.4911 69.7686C24.2473 69.7686 22.4217 71.5939 22.4217 73.8375C22.4217 75.4705 23.7505 76.7991 25.3836 76.7991L54.6161 76.7991C56.2492 76.7991 57.578 75.4706 57.578 73.8375C57.578 71.5939 55.7523 69.7686 53.5086 69.7686L50.2258 69.7686L48.6448 64.9114L76.772 64.9114C78.5519 64.9114 79.9997 63.4636 79.9997 61.6842L79.9997 11.1178C80 9.33844 78.552 7.89062 76.7723 7.89062ZM44.6844 5.54688L50.9375 5.54688C52.8759 5.54688 54.4531 7.12391 54.4531 9.0625C54.4531 11.0011 52.8759 12.5781 50.9375 12.5781L44.6844 12.5781C45.4217 11.5981 45.8594 10.3806 45.8594 9.0625C45.8594 7.74438 45.4217 6.52688 44.6844 5.54688ZM40 5.54688C41.9384 5.54688 43.5156 7.12391 43.5156 9.0625C43.5156 11.0011 41.9384 12.5781 40 12.5781C38.0616 12.5781 36.4844 11.0011 36.4844 9.0625C36.4844 7.12391 38.0616 5.54688 40 5.54688ZM29.0625 5.54688L35.3156 5.54688C34.5783 6.52688 34.1406 7.74438 34.1406 9.0625C34.1406 10.3806 34.5783 11.5981 35.3156 12.5781L29.0625 12.5781C27.1241 12.5781 25.5469 11.0011 25.5469 9.0625C25.5469 7.12391 27.1241 5.54688 29.0625 5.54688ZM53.5088 72.1125C54.4603 72.1125 55.2344 72.8864 55.2344 73.8377C55.2344 74.1783 54.9572 74.4555 54.6162 74.4555L25.3837 74.4555C25.0428 74.4555 24.7656 74.1784 24.7656 73.8377C24.7656 72.8864 25.5397 72.1125 26.4913 72.1125L34.7352 72.1125C35.3825 72.1125 35.907 71.5878 35.907 70.9406C35.907 70.2934 35.3825 69.7687 34.7352 69.7687L32.2389 69.7687L33.8198 64.9116L46.1803 64.9116L47.7612 69.7687L40.143 69.7687C39.4956 69.7687 38.9711 70.2934 38.9711 70.9406C38.9711 71.5878 39.4956 72.1125 40.143 72.1125L53.5088 72.1125ZM77.6562 17.2639L23.5938 17.2639C22.9464 17.2639 22.4219 17.7886 22.4219 18.4358C22.4219 19.083 22.9464 19.6077 23.5938 19.6077L77.6562 19.6077L77.6562 53.1945L68.7891 53.1945C68.1417 53.1945 67.6172 53.7192 67.6172 54.3664C67.6172 55.0136 68.1417 55.5383 68.7891 55.5383L77.6562 55.5383L77.6562 61.6842C77.6562 62.1714 77.2597 62.5677 76.7723 62.5677L3.22766 62.5677C2.74031 62.5677 2.34375 62.1712 2.34375 61.6842L2.34375 55.5383L63.3973 55.5383C64.0447 55.5383 64.5692 55.0136 64.5692 54.3664C64.5692 53.7192 64.0447 53.1945 63.3973 53.1945L58.9189 53.1945C58.063 50.7247 55.9762 48.8267 53.3834 48.2402C53.375 48.2381 53.3666 48.2364 53.358 48.2347L44.4739 46.4325C44.3791 45.7075 44.3606 44.9866 44.42 44.2253C47.5339 41.6213 49.0505 39.3141 49.0505 37.1823C49.0505 36.9513 49.0411 36.7236 49.0211 36.4909C48.9711 35.9809 48.9428 33.6295 48.9527 30.7725C48.9606 28.4447 48.0595 26.2541 46.4158 24.6042C44.7705 22.953 42.5805 22.0433 40.2494 22.043C40.2489 22.043 40.2484 22.043 40.248 22.043C37.9167 22.043 35.7264 22.9523 34.0808 24.6034C32.4364 26.2533 31.5352 28.4442 31.5431 30.7727C31.553 33.6312 31.5247 35.9847 31.4736 36.5075C31.4548 36.7198 31.4453 36.9469 31.4453 37.1822C31.4453 39.3111 32.9572 41.6144 36.0591 44.2109C36.1167 44.9556 36.0959 45.6603 35.9964 46.3944L26.9528 48.2341C26.9444 48.2358 26.9361 48.2375 26.9277 48.2395C24.3352 48.8266 22.2489 50.7248 21.3934 53.1945L2.34375 53.1945L2.34375 19.6077L18.2302 19.6077C18.8775 19.6077 19.402 19.083 19.402 18.4358C19.402 17.7886 18.8775 17.2639 18.2302 17.2639L2.34375 17.2639L2.34375 11.1178C2.34375 10.6306 2.74031 10.2344 3.22766 10.2344L23.3209 10.2344C23.8653 12.9056 26.2327 14.9219 29.0623 14.9219L50.9373 14.9219C53.767 14.9219 56.1344 12.9056 56.6787 10.2344L76.772 10.2344C77.2594 10.2344 77.6559 10.6308 77.6559 11.1178L77.6559 17.2639L77.6562 17.2639ZM33.8869 30.7645C33.8811 29.0638 34.5395 27.4633 35.7408 26.258C36.9436 25.0513 38.5441 24.3867 40.248 24.3867L40.2491 24.3867C41.9525 24.387 43.5531 25.0517 44.7556 26.2586C45.9566 27.4638 46.6147 29.0641 46.6089 30.7644C46.6006 33.1677 46.6173 35.9942 46.6873 36.7048C46.7002 36.8566 46.7067 37.0172 46.7067 37.1823C46.7067 38.5908 45.2275 40.5631 42.5394 42.7383C41.8967 43.2608 41.087 43.5484 40.2537 43.5484C40.2513 43.5484 40.2487 43.5484 40.2462 43.5484C39.4069 43.5487 38.6 43.2616 37.952 42.7344C35.2673 40.5625 33.7889 38.5906 33.7889 37.1823C33.7889 37.0153 33.7953 36.8573 33.8069 36.7248C33.8784 35.9977 33.8952 33.1692 33.8869 30.7645ZM42.1945 47.0598C42.1366 47.1223 42.078 47.1852 42.0189 47.2478C41.5064 47.7939 40.882 48.0944 40.2537 48.0944C40.2505 48.0944 40.247 48.0944 40.2436 48.0944C39.6205 48.0944 38.9947 47.7931 38.4791 47.2433C38.41 47.17 38.3416 47.0966 38.2739 47.0233C38.3498 46.5455 38.3972 46.0756 38.4192 45.6056C39.0036 45.7933 39.6164 45.892 40.235 45.892L40.2584 45.892C40.8703 45.892 41.4758 45.7961 42.0531 45.6137C42.0727 46.0972 42.1186 46.5764 42.1945 47.0598ZM36.5995 48.6634C36.6569 48.7253 36.7136 48.7873 36.7717 48.8487C37.733 49.8739 38.9655 50.438 40.2373 50.438L40.2602 50.438C41.5366 50.438 42.7678 49.8748 43.7261 48.8536C43.7739 48.803 43.8206 48.7519 43.868 48.7009L52.8788 50.5289C54.3925 50.8752 55.6564 51.8659 56.3692 53.1945L23.9431 53.1945C24.6558 51.8656 25.9195 50.8745 27.4334 50.5281L36.5995 48.6634Z" fill="rgb(8.13079,107.971,248.994)" fill-rule="nonzero" />
	</g>
</svg>
