<svg viewBox="0 0 80 80" xmlns="http://www.w3.org/2000/svg" xmlns:xlink="http://www.w3.org/1999/xlink" width="80.000000" height="80.000000" fill="none" customFrame="#000000">
	<defs>
		<clipPath id="clipPath_0">
			<rect width="24.000000" height="24.000000" x="28.000000" y="28.000000" fill="rgb(255,255,255)" />
		</clipPath>
	</defs>
	<g id="Group 1234">
		<circle id="Ellipse 5" cx="40" cy="40" r="40" fill="rgb(255,255,255)" />
		<g id="play 1" clip-path="url(#clipPath_0)" customFrame="url(#clipPath_0)">
			<rect id="play 1" width="24.000000" height="24.000000" x="28.000000" y="28.000000" fill="rgb(255,255,255)" fill-opacity="0" />
			<path id="Vector" d="M50.1879 38.9536L30.9879 28.1536C30.6159 27.9448 30.1623 27.9496 29.7951 28.1632C29.4256 28.3792 29.2 28.7728 29.2 29.2L29.2 50.8C29.2 51.2272 29.4256 51.6208 29.7951 51.8368C29.9823 51.9448 30.1911 52 30.3999 52C30.6015 52 30.8055 51.9496 30.9879 51.8464L50.1879 41.0464C50.5647 40.8328 50.7999 40.4344 50.7999 40C50.7999 39.5656 50.5647 39.1672 50.1879 38.9536Z" fill="rgb(8.13079,107.971,248.994)" fill-rule="nonzero" />
		</g>
	</g>
</svg>
