<svg viewBox="0 0 72.0002 72.001" xmlns="http://www.w3.org/2000/svg" xmlns:xlink="http://www.w3.org/1999/xlink" width="72.000244" height="72.000977" fill="none" customFrame="#000000">
	<g id="XMLID_1591_">
		<path id="XMLID_1844_" d="M21.4643 25.3047L25.9453 29.7856L35.9998 19.8812L35.9998 23.9887L40.2351 23.9887L40.2351 12.7051L28.9514 12.7051L28.9514 16.9404L32.9501 16.9404L25.9678 23.8183L21.4643 19.315L3.44873 37.3306L6.44351 40.3254L21.4643 25.3047Z" fill="rgb(8.13079,107.971,248.994)" fill-rule="nonzero" />
		<g id="Group">
			<path id="Vector" d="M12.7058 71.9997L21.1764 71.9997C21.1764 70.603 21.1764 48.0882 21.1764 46.5879L12.7058 46.5879L12.7058 71.9997Z" fill="rgb(8.13079,107.971,248.994)" fill-rule="nonzero" />
			<path id="Vector" d="M25.4116 72.0006L33.8822 72.0006C33.8822 70.6769 33.8822 44.3311 33.8822 42.3535L25.4116 42.3535L25.4116 72.0006Z" fill="rgb(8.13079,107.971,248.994)" fill-rule="nonzero" />
			<path id="Vector" d="M72.0003 21.1765L64.0591 10.5882L72.0003 0C70.5744 0 45.777 0 44.4709 0L44.4709 38.1176L38.1179 38.1176L38.1179 72L55.0591 72L55.0591 38.1176L48.7062 38.1176L48.7062 21.1765L72.0003 21.1765Z" fill="rgb(8.13079,107.971,248.994)" fill-rule="nonzero" />
			<path id="Vector" d="M8.47059 50.8232L0 50.8232L0 71.9997L8.47059 71.9997C8.47059 71.0221 8.47059 51.7974 8.47059 50.8232Z" fill="rgb(8.13079,107.971,248.994)" fill-rule="nonzero" />
		</g>
	</g>
</svg>
